<?xml version="1.0" standalone="no"?>
<!DOCTYPE svg PUBLIC "-//W3C//DTD SVG 20010904//EN"
 "http://www.w3.org/TR/2001/REC-SVG-20010904/DTD/svg10.dtd">
<svg version="1.0" xmlns="http://www.w3.org/2000/svg"
 width="512.000000pt" height="512.000000pt" viewBox="0 0 512.000000 512.000000"
 preserveAspectRatio="xMidYMid meet">
<metadata>
Created by potrace 1.14, written by Peter Selinger 2001-2017
</metadata>
<g transform="translate(0.000000,512.000000) scale(0.100000,-0.100000)"
fill="#000000" stroke="none">
<path d="M3235 4571 c-115 -70 -79 -246 55 -265 48 -7 114 24 140 66 32 53 24
135 -17 176 -44 44 -127 55 -178 23z m113 -115 c4 -32 -5 -45 -36 -51 -31 -6
-58 35 -42 65 9 16 19 20 43 18 27 -3 33 -8 35 -32z"/>
<path d="M2773 4309 c-69 -67 -78 -97 -41 -123 31 -22 33 -21 82 24 l44 40 32
-36 c21 -24 40 -36 58 -36 31 0 54 28 46 56 -8 29 -120 136 -142 136 -9 0 -45
-28 -79 -61z"/>
<path d="M3980 4347 c-3 -2 -57 -7 -120 -11 -320 -18 -518 -121 -671 -349 -32
-49 -59 -91 -59 -95 0 -4 -534 -7 -1188 -7 -1113 0 -1190 -1 -1233 -18 -54
-21 -96 -57 -130 -112 l-24 -40 -5 -379 c-4 -283 -8 -380 -17 -383 -22 -8
-115 -87 -180 -153 -180 -184 -304 -447 -340 -725 -9 -75 -10 -328 -1 -415 17
-161 79 -365 155 -511 142 -271 376 -458 644 -515 101 -21 148 -26 244 -26
151 -1 263 22 424 86 76 31 71 30 71 11 0 -15 29 -35 53 -35 8 0 31 16 51 35
l38 35 41 -35 c46 -40 66 -43 91 -16 24 26 14 54 -38 104 -38 36 -40 40 -23
51 44 27 262 171 267 176 12 12 90 60 100 60 5 0 10 4 10 9 0 11 110 78 130
79 30 2 2015 3 2025 1 32 -5 96 11 145 36 95 48 129 120 130 275 l0 106 50 44
c202 179 387 551 456 918 45 240 54 555 20 747 -63 353 -174 538 -491 822
-149 133 -251 187 -408 217 -66 13 -208 21 -217 13z"/>
<path d="M4220 850 c-60 -60 -73 -93 -48 -118 22 -22 57 -13 94 24 l37 35 36
-35 c20 -20 46 -36 58 -36 25 0 53 25 53 47 0 25 -120 143 -147 143 -15 0 -44
-21 -83 -60z"/>
<path d="M2143 809 c-73 -21 -114 -99 -94 -177 33 -120 207 -139 261 -27 25
52 25 85 0 135 -31 60 -98 88 -167 69z m79 -111 c20 -32 0 -68 -37 -68 -42 0
-58 39 -29 71 17 19 53 17 66 -3z"/>
</g>
</svg>
